#!OML:ASF E:\acrobat2\Project_11_07_03\Capture day 1\Session 1\Acrobat.ASF
:FULLY-SPECIFIED
:DEGREES
448
root 8.57873 18.1346 5.81626 5.93552 3.39576 -3.05809
lowerback -1.35111 -1.4225 4.3977
upperback 1.38744 -2.02119 1.08997
thorax 2.07225 -0.949733 -1.40349
lowerneck 0.846703 -3.14812 -1.99703
upperneck 5.26688 -4.26317 1.70751
head 1.57436 -2.13574 0.814565
rclavicle 3.07371e-014 -1.63997e-014
rhumerus -40.6212 -1.52338 -73.9854
rradius 25.103
rwrist 4.81996
rhand -4.28722 -36.3528
rfingers 7.12502
rthumb 21.4781 -65.182
lclavicle 3.07371e-014 -1.63997e-014
lhumerus -32.7881 -12.1921 83.1293
lradius 32.3472
lwrist 10.1426
lhand -9.03481 -14.9013
lfingers 7.12502
lthumb 16.9129 14.3822
rfemur -11.0179 -0.528119 20.4166
rtibia 12.498
rfoot -13.0208 -13.4025
rtoes -0.267647
lfemur -3.09581 -2.72786 -12.3072
ltibia 26.7238
lfoot -9.73939 -17.7535
ltoes 41.3634
449
root 8.56047 18.1358 5.86716 6.05535 3.96237 -2.9439
lowerback -1.21716 -1.49216 4.46625
upperback 1.42472 -2.11003 1.14996
thorax 2.03036 -0.993744 -1.37905
lowerneck 0.88177 -3.18195 -1.9522
upperneck 5.00606 -4.30139 1.60255
head 1.48183 -2.15569 0.775843
rclavicle 2.73329e-016 -1.28216e-014
rhumerus -40.5331 -1.06459 -74.1251
rradius 25.663
rwrist 4.88884
rhand -4.40504 -36.3654
rfingers 7.12502
rthumb 21.365 -65.2075
lclavicle 2.73329e-016 -1.28216e-014
lhumerus -32.8102 -12.7044 83.0152
lradius 32.8508
lwrist 9.87731
lhand -8.6874 -14.7648
lfingers 7.12502
lthumb 17.2473 14.4899
rfemur -10.9189 -0.78721 20.3626
rtibia 12.5183
rfoot -13.3505 -13.6678
rtoes -0.398431
lfemur -4.27524 -2.41619 -12.182
ltibia 28.6854
lfoot -8.46918 -17.6503
ltoes 41.9507
450
root 8.54164 18.138 5.91563 6.16474 4.52666 -2.84921
lowerback -1.04679 -1.55794 4.55062
upperback 1.46716 -2.19182 1.21499
thorax 1.97335 -1.03428 -1.35671
lowerneck 0.925284 -3.22435 -1.91815
upperneck 4.71617 -4.35153 1.50297
head 1.37965 -2.18161 0.741068
rclavicle -9.19379e-016 -1.23246e-014
rhumerus -40.4603 -0.476019 -74.3342
rradius 26.3399
rwrist 4.93217
rhand -4.57993 -36.3594
rfingers 7.12502
rthumb 21.197 -65.2205
lclavicle -9.19379e-016 -1.23246e-014
lhumerus -32.8144 -13.319 82.9075
lradius 33.4467
lwrist 9.61884
lhand -8.3296 -14.6972
lfingers 7.12502
lthumb 17.5917 14.5269
rfemur -10.8105 -1.00763 20.3387
rtibia 12.5256
rfoot -13.6738 -13.9589
rtoes -0.49678
lfemur -5.45619 -2.04909 -12.0033
ltibia 30.6182
lfoot -7.04742 -17.3992
ltoes 42.4775
451
root 8.52247 18.1412 5.96228 6.25465 5.05786 -2.76887
lowerback -0.832021 -1.60964 4.64712
upperback 1.51227 -2.25199 1.27992
thorax 1.89488 -1.06426 -1.33903
lowerneck 0.995736 -3.281 -1.89498
upperneck 4.39263 -4.42161 1.41113
head 1.26355 -2.21751 0.71128
rclavicle -1.92573e-014 4.77083e-015
rhumerus -40.4124 0.228912 -74.6031
rradius 27.1232
rwrist 4.95224
rhand -4.824 -36.3045
rfingers 7.12502
rthumb 20.9625 -65.1917
lclavicle -1.92573e-014 4.77083e-015
lhumerus -32.824 -14.0136 82.7991
lradius 34.1575
lwrist 9.37297
lhand -7.98096 -14.7104
lfingers 7.12502
lthumb 17.9272 14.4834
rfemur -10.6825 -1.16292 20.3345
rtibia 12.5168
rfoot -13.9925 -14.2644
rtoes -0.512211
lfemur -6.62079 -1.65954 -11.7985
ltibia 32.528
lfoot -5.62055 -16.9607
ltoes 42.7448
452
root 8.50312 18.1453 6.00699 6.32594 5.53776 -2.69347
lowerback -0.572502 -1.63977 4.74481
upperback 1.5583 -2.27994 1.33764
thorax 1.7937 -1.07858 -1.32709
lowerneck 1.09825 -3.35107 -1.86735
upperneck 4.03995 -4.51055 1.32222
head 1.13372 -2.26262 0.682621
rclavicle 2.00773e-014 -1.2921e-014
rhumerus -40.3962 1.03624 -74.9279
rradius 28.0091
rwrist 4.93366
rhand -5.12183 -36.204
rfingers 7.12502
rthumb 20.6764 -65.1227
lclavicle 2.00773e-014 -1.2921e-014
lhumerus -32.8305 -14.7789 82.6795
lradius 34.9756
lwrist 9.1464
lhand -7.64324 -14.7891
lfingers 7.12502
lthumb 18.2521 14.3745
rfemur -10.5388 -1.23953 20.3355
rtibia 12.4938
rfoot -14.3101 -14.578
rtoes -0.41101
lfemur -7.77371 -1.28184 -11.5959
ltibia 34.4264
lfoot -4.2283 -16.3432
ltoes 42.8219
453
root 8.48378 18.1503 6.04907 6.38447 5.95738 -2.62879
lowerback -0.273078 -1.64399 4.84657
upperback 1.60616 -2.27008 1.38734
thorax 1.67369 -1.07434 -1.3237
lowerneck 1.24017 -3.43291 -1.83162
upperneck 3.64787 -4.61668 1.25257
head 0.986284 -2.31592 0.659917
rclavicle -2.40032e-014 3.89618e-014
rhumerus -40.4127 1.92657 -75.3021
rradius 29.0038
rwrist 4.86226
rhand -5.45325 -36.0625
rfingers 7.12502
rthumb 20.3579 -65.0155
lclavicle -2.40032e-014 3.89618e-014
lhumerus -32.8129 -15.6053 82.5359
lradius 35.8864
lwrist 8.93843
lhand -7.2992 -14.9317
lfingers 7.12502
lthumb 18.583 14.2006
rfemur -10.3983 -1.23009 20.3475
rtibia 12.4701
rfoot -14.6291 -14.8952
rtoes -0.18883
lfemur -8.93268 -0.923065 -11.3949
ltibia 36.3233
lfoot -2.84914 -15.5801
ltoes 42.8694
454
root 8.46513 18.1561 6.08747 6.4469 6.35615 -2.57654
lowerback 0.0468165 -1.63479 4.96533
upperback 1.65579 -2.24024 1.42821
thorax 1.54431 -1.06003 -1.33811
lowerneck 1.41492 -3.52277 -1.80119
upperneck 3.22394 -4.7356 1.23548
head 0.826235 -2.37518 0.655662
rclavicle 1.39646e-014 2.38542e-015
rhumerus -40.458 2.87118 -75.7152
rradius 30.1221
rwrist 4.74314
rhand -5.80694 -35.8913
rfingers 7.12502
rthumb 20.0179 -64.8802
lclavicle 1.39646e-014 2.38542e-015
lhumerus -32.7447 -16.4729 82.3537
lradius 36.8817
lwrist 8.74381
lhand -6.92539 -15.1065
lfingers 7.12502
lthumb 18.9426 13.9911
rfemur -10.2872 -1.19507 20.3699
rtibia 12.4593
rfoot -14.9299 -15.2037
rtoes 0.103403
lfemur -10.1363 -0.604589 -11.1992
ltibia 38.2269
lfoot -1.49242 -14.7227
ltoes 42.8564
455
root 8.44884 18.1629 6.12332 6.51433 6.74798 -2.54188
lowerback 0.356976 -1.61578 5.12638
upperback 1.71548 -2.19754 1.45959
thorax 1.42987 -1.03822 -1.38645
lowerneck 1.62219 -3.6175 -1.77511
upperneck 2.7733 -4.86243 1.26489
head 0.655193 -2.43824 0.667934
rclavicle -1.57537e-014 -1.11319e-014
rhumerus -40.5222 3.84049 -76.1451
rradius 31.3612
rwrist 4.60349
rhand -6.15642 -35.7035
rfingers 7.12502
rthumb 19.682 -64.7271
lclavicle -1.57537e-014 -1.11319e-014
lhumerus -32.607 -17.3783 82.1348
lradius 37.9532
lwrist 8.58219
lhand -6.53756 -15.2624
lfingers 7.12502
lthumb 19.3155 13.7983
rfemur -10.2033 -1.19495 20.4021
rtibia 12.4644
rfoot -15.1782 -15.4698
rtoes 0.348239
lfemur -11.3717 -0.335164 -11.0167
ltibia 40.1042
lfoot -0.183322 -13.8283
ltoes 42.7424
456
root 8.43532 18.1708 6.15707 6.59044 7.13861 -2.53075
lowerback 0.64295 -1.59036 5.33361
upperback 1.78719 -2.14746 1.49114
thorax 1.34062 -1.01139 -1.46156
lowerneck 1.86056 -3.71449 -1.75765
upperneck 2.30116 -4.99271 1.31376
head 0.474381 -2.50327 0.689308
rclavicle 1.90833e-014 -8.74653e-015
rhumerus -40.5967 4.84516 -76.575
rradius 32.7199
rwrist 4.43648
rhand -6.48945 -35.5355
rfingers 7.12502
rthumb 19.3618 -64.5916
lclavicle 1.90833e-014 -8.74653e-015
lhumerus -32.4014 -18.291 81.8872
lradius 39.099
lwrist 8.4498
lhand -6.1806 -15.3919
lfingers 7.12502
lthumb 19.6587 13.6341
rfemur -10.1535 -1.23188 20.4504
rtibia 12.4937
rfoot -15.371 -15.6983
rtoes 0.501253
lfemur -12.6316 -0.10901 -10.8415
ltibia 41.9239
lfoot 1.05504 -12.9606
ltoes 42.522
457
root 8.42489 18.1796 6.1886 6.67651 7.53175 -2.54116
lowerback 0.906069 -1.56317 5.58453
upperback 1.8704 -2.09592 1.52827
thorax 1.27539 -0.982529 -1.55643
lowerneck 2.10183 -3.80897 -1.76232
upperneck 1.83749 -5.11985 1.37077
head 0.297326 -2.56709 0.717929
rclavicle 5.06901e-015 7.95139e-016
rhumerus -40.6705 5.91607 -77.0005
rradius 34.1861
rwrist 4.21842
rhand -6.82658 -35.4197
rfingers 7.12502
rthumb 19.0376 -64.508
lclavicle 5.06901e-015 7.95139e-016
lhumerus -32.133 -19.1849 81.6173
lradius 40.3164
lwrist 8.33896
lhand -5.88563 -15.497
lfingers 7.12502
lthumb 19.9423 13.4998
rfemur -10.1437 -1.31659 20.5103
rtibia 12.5564
rfoot -15.5095 -15.883
rtoes 0.564377
lfemur -13.908 0.0816894 -10.6767
ltibia 43.667
lfoot 2.16414 -12.1873
ltoes 42.1157
458
root 8.4176 18.1893 6.21824 6.76639 7.9136 -2.56291
lowerback 1.15374 -1.53566 5.86568
upperback 1.96608 -2.04427 1.56947
thorax 1.23144 -0.952445 -1.66485
lowerneck 2.32865 -3.8942 -1.78856
upperneck 1.39982 -5.23479 1.4259
head 0.131259 -2.62503 0.750085
rclavicle 1.66979e-014 2.42517e-014
rhumerus -40.7331 7.07993 -77.4224
rradius 35.7296
rwrist 3.94649
rhand -7.20305 -35.3222
rfingers 7.12502
rthumb 18.6755 -64.4457
lclavicle 1.66979e-014 2.42517e-014
lhumerus -31.8091 -20.0601 81.3336
lradius 41.6011
lwrist 8.26895
lhand -5.66717 -15.5541
lfingers 7.12502
lthumb 20.1523 13.4206
rfemur -10.1641 -1.44225 20.5691
rtibia 12.6508
rfoot -15.6026 -16.0148
rtoes 0.531395
lfemur -15.1732 0.261425 -10.5327
ltibia 45.3174
lfoot 3.07875 -11.5636
ltoes 41.5272
459
root 8.41227 18.1998 6.24606 6.85887 8.26213 -2.56089
lowerback 1.39757 -1.50943 6.1192
upperback 2.07355 -1.99394 1.61017
thorax 1.20313 -0.922677 -1.75894
lowerneck 2.54263 -3.9621 -1.83707
upperneck 0.989681 -5.32714 1.47417
head -0.0243863 -2.67178 0.784169
rclavicle 2.00773e-014 4.77083e-015
rhumerus -40.7762 8.35642 -77.8415
rradius 37.3327
rwrist 3.63107
rhand -7.63009 -35.2188
rfingers 7.12502
rthumb 18.2647 -64.3813
lclavicle 2.00773e-014 4.77083e-015
lhumerus -31.438 -20.8947 81.0407
lradius 42.9388
lwrist 8.22629
lhand -5.53804 -15.5528
lfingers 7.12502
lthumb 20.2764 13.4088
rfemur -10.2074 -1.5658 20.5893
rtibia 12.7725
rfoot -15.6678 -16.1208
rtoes 0.371314
lfemur -16.3998 0.464944 -10.4404
ltibia 46.8571
lfoot 3.77387 -11.1125
ltoes 40.9391
460
root 8.40802 18.2111 6.27148 6.95475 8.56119 -2.49343
lowerback 1.65947 -1.48245 6.29173
upperback 2.19014 -1.94088 1.6369
thorax 1.17666 -0.892247 -1.8223
lowerneck 2.74833 -4.01205 -1.89077
upperneck 0.601821 -5.39593 1.5063
head -0.172972 -2.70665 0.814425
rclavicle 2.88238e-015 -4.49253e-014
rhumerus -40.7903 9.73086 -78.2541
rradius 38.9785
rwrist 3.30677
rhand -8.0623 -35.1226
rfingers 7.12502
rthumb 17.8489 -64.3235
lclavicle 2.88238e-015 -4.49253e-014
lhumerus -31.022 -21.7059 80.7409
lradius 44.3012
lwrist 8.19709
lhand -5.5284 -15.5126
lfingers 7.12502
lthumb 20.2857 13.448
rfemur -10.2749 -1.66926 20.5241
rtibia 12.9255
rfoot -15.7 -16.2262
rtoes 0.0074656
lfemur -17.5705 0.712544 -10.4428
ltibia 48.2594
lfoot 4.26263 -10.8141
ltoes 40.617
461
root 8.40456 18.2234 6.29359 7.05182 8.79072 -2.36241
lowerback 1.96232 -1.44838 6.38031
upperback 2.31414 -1.87517 1.64508
thorax 1.13793 -0.8567 -1.85759
lowerneck 2.9659 -4.05303 -1.92152
upperneck 0.20151 -5.4526 1.51467
head -0.329342 -2.73518 0.834801
rclavicle -2.17669e-014 -4.37326e-015
rhumerus -40.7591 11.1742 -78.6503
rradius 40.6416
rwrist 3.02105
rhand -8.44269 -35.0307
rfingers 7.12502
rthumb 17.4828 -64.2645
lclavicle -2.17669e-014 -4.37326e-015
lhumerus -30.5507 -22.528 80.4325
lradius 45.65
lwrist 8.17483
lhand -5.65978 -15.4653
lfingers 7.12502
lthumb 20.1594 13.5087
rfemur -10.3821 -1.7391 20.3772
rtibia 13.1314
rfoot -15.6947 -16.3336
rtoes -0.546905
lfemur -18.6779 1.03077 -10.5346
ltibia 49.5058
lfoot 4.55518 -10.6279
ltoes 40.6945
